<?xml version="1.0" standalone="no"?>
<!DOCTYPE svg PUBLIC "-//W3C//DTD SVG 20010904//EN"
 "http://www.w3.org/TR/2001/REC-SVG-20010904/DTD/svg10.dtd">
<svg version="1.0" xmlns="http://www.w3.org/2000/svg"
 width="200.000000pt" height="200.000000pt" viewBox="0 0 200.000000 200.000000"
 preserveAspectRatio="xMidYMid meet">

<g transform="translate(0.000000,200.000000) scale(0.100000,-0.100000)"
fill="#000000" stroke="none">
<path d="M1420 1789 c0 -6 14 -30 30 -54 30 -44 38 -79 20 -90 -5 -3 -10 -15
-10 -26 0 -12 -7 -19 -20 -19 -39 0 -52 -62 -21 -101 l19 -24 -56 -11 c-37 -8
-61 -8 -69 -2 -15 12 -36 0 -29 -17 2 -7 -7 -18 -21 -24 -29 -13 -43 -3 -43
32 0 20 -16 23 -23 5 -4 -10 -7 -10 -17 -1 -11 10 -11 15 0 28 16 20 5 32 -14
16 -11 -9 -20 -10 -35 -2 -21 12 -40 -2 -21 -14 8 -5 8 -11 1 -19 -15 -18 -2
-27 20 -16 24 13 38 -9 14 -22 -16 -9 -15 -12 11 -34 l28 -25 -27 -27 c-22
-22 -29 -24 -36 -13 -11 17 -41 7 -41 -14 0 -9 7 -18 15 -21 12 -5 11 -11 -7
-37 -12 -16 -34 -67 -49 -111 -16 -45 -28 -76 -29 -69 0 16 -75 95 -83 87 -4
-4 -9 0 -12 8 -4 10 -14 14 -26 11 -12 -4 -25 1 -33 12 -12 16 -14 16 -22 3
-5 -9 -23 -19 -40 -22 -26 -6 -32 -3 -44 19 -8 15 -27 33 -41 41 -18 9 -29 23
-31 41 -2 14 -9 29 -17 31 -10 3 -12 0 -8 -12 4 -10 7 -30 7 -46 0 -22 6 -30
29 -38 20 -7 30 -19 34 -39 6 -31 -9 -57 -29 -49 -16 6 -26 -5 -15 -18 5 -6 2
-25 -6 -45 -11 -25 -17 -31 -26 -22 -15 15 -42 14 -57 -4 -7 -8 -16 -13 -20
-10 -5 3 -11 1 -15 -5 -4 -6 -55 -10 -125 -10 -103 0 -120 2 -129 18 -10 16
-12 16 -25 0 -10 -14 -29 -18 -90 -18 -44 0 -76 -4 -76 -10 0 -6 31 -10 72
-10 54 0 76 -4 91 -17 18 -17 19 -17 28 0 9 15 27 17 128 17 103 0 122 -3 144
-20 28 -22 62 -26 73 -9 10 16 34 -45 27 -70 -4 -16 -1 -21 14 -21 52 0 49
-64 -4 -86 -32 -14 -40 -25 -58 -83 -5 -17 -4 -22 6 -19 8 3 18 19 23 36 5 18
15 32 23 32 8 0 31 16 50 35 31 31 40 35 67 29 17 -3 34 -12 39 -18 5 -8 9 -8
15 1 4 6 16 13 27 15 11 1 22 6 25 10 3 3 12 8 20 10 8 2 32 24 54 50 l40 46
14 -51 c7 -28 26 -75 42 -106 23 -41 27 -57 19 -68 -17 -20 7 -46 31 -33 25
14 69 -33 50 -55 -7 -8 -16 -13 -20 -10 -5 3 -11 1 -15 -4 -3 -5 2 -14 11 -19
24 -13 7 -33 -22 -26 -14 4 -24 2 -24 -5 0 -6 5 -11 11 -11 8 0 7 -5 -1 -15
-18 -22 -3 -32 23 -16 15 10 22 10 25 2 2 -6 10 -11 18 -11 12 0 12 4 3 21 -8
15 -8 24 0 32 8 8 11 8 11 -1 0 -7 7 -12 15 -12 8 0 15 6 15 13 1 28 17 40 39
28 12 -7 21 -17 20 -24 -5 -38 21 -53 38 -22 9 15 12 14 101 -11 11 -3 10 -9
-2 -26 -24 -34 -20 -73 9 -96 14 -11 25 -27 25 -35 0 -9 5 -19 10 -22 12 -8
13 -58 1 -70 -10 -11 -51 -83 -51 -90 0 -3 6 -5 13 -5 7 0 25 21 39 47 15 28
32 46 40 44 39 -11 58 -12 58 -3 0 5 -14 15 -30 21 -29 9 -31 14 -29 53 2 24
11 54 21 67 23 30 23 66 0 89 -16 16 -15 18 42 34 55 15 61 15 72 0 10 -14 14
-14 28 -3 9 8 14 21 11 30 -3 11 5 25 24 39 l30 22 17 -40 c20 -45 34 -52 34
-17 l1 22 19 -24 c13 -15 18 -31 14 -47 -5 -18 -2 -24 10 -24 10 0 16 9 16 25
0 16 6 25 16 25 11 0 14 5 10 16 -3 9 -6 23 -6 31 0 12 -3 13 -14 4 -14 -12
-46 -5 -46 10 0 5 7 9 16 9 26 0 10 23 -25 35 -28 9 -31 13 -18 23 8 7 20 26
27 42 9 21 18 29 33 27 13 -1 23 5 25 16 2 10 -3 17 -12 17 -13 0 -15 7 -10
38 8 51 -11 115 -46 156 l-29 33 24 23 c35 32 58 100 54 154 -3 30 0 47 8 51
20 7 16 37 -4 33 -12 -2 -27 10 -44 37 -29 45 -28 52 9 66 25 10 26 11 8 21
-25 14 -1 30 33 21 20 -5 23 -3 18 10 -3 9 -1 19 5 23 7 5 3 10 -10 15 -13 5
-22 17 -22 29 0 19 -11 26 -22 14 -4 -3 -3 -18 2 -33 6 -22 4 -30 -11 -39 -24
-16 -29 -15 -29 3 0 18 -20 20 -20 3 0 -7 -7 -21 -15 -32 -13 -18 -15 -18 -45
4 -19 13 -29 28 -26 37 7 16 -23 31 -33 16 -4 -7 -26 -6 -69 5 -60 14 -62 16
-46 34 24 26 22 77 -3 98 -16 12 -21 27 -19 55 1 21 7 40 14 43 22 7 57 40 50
47 -4 4 -19 0 -32 -9 -14 -9 -29 -16 -33 -16 -4 0 -21 21 -38 45 -29 44 -45
56 -45 34z"/>
</g>
</svg>
